%TF.GenerationSoftware,KiCad,Pcbnew,8.99.0-187-g1297ddc88d*%
%TF.CreationDate,2024-03-10T18:50:10-06:00*%
%TF.ProjectId,Carrot on a Twig,43617272-6f74-4206-9f6e-206120547769,rev?*%
%TF.SameCoordinates,Original*%
%TF.FileFunction,Copper,L1,Top*%
%TF.FilePolarity,Positive*%
%FSLAX46Y46*%
G04 Gerber Fmt 4.6, Leading zero omitted, Abs format (unit mm)*
G04 Created by KiCad (PCBNEW 8.99.0-187-g1297ddc88d) date 2024-03-10 18:50:10*
%MOMM*%
%LPD*%
G01*
G04 APERTURE LIST*
G04 Aperture macros list*
%AMRoundRect*
0 Rectangle with rounded corners*
0 $1 Rounding radius*
0 $2 $3 $4 $5 $6 $7 $8 $9 X,Y pos of 4 corners*
0 Add a 4 corners polygon primitive as box body*
4,1,4,$2,$3,$4,$5,$6,$7,$8,$9,$2,$3,0*
0 Add four circle primitives for the rounded corners*
1,1,$1+$1,$2,$3*
1,1,$1+$1,$4,$5*
1,1,$1+$1,$6,$7*
1,1,$1+$1,$8,$9*
0 Add four rect primitives between the rounded corners*
20,1,$1+$1,$2,$3,$4,$5,0*
20,1,$1+$1,$4,$5,$6,$7,0*
20,1,$1+$1,$6,$7,$8,$9,0*
20,1,$1+$1,$8,$9,$2,$3,0*%
G04 Aperture macros list end*
%TA.AperFunction,SMDPad,CuDef*%
%ADD10RoundRect,0.250000X0.475000X-0.250000X0.475000X0.250000X-0.475000X0.250000X-0.475000X-0.250000X0*%
%TD*%
%TA.AperFunction,SMDPad,CuDef*%
%ADD11R,1.500000X1.000000*%
%TD*%
%TA.AperFunction,ComponentPad*%
%ADD12R,1.700000X1.700000*%
%TD*%
%TA.AperFunction,ComponentPad*%
%ADD13O,1.700000X1.700000*%
%TD*%
%TA.AperFunction,Conductor*%
%ADD14C,0.200000*%
%TD*%
%TA.AperFunction,Conductor*%
%ADD15C,0.500000*%
%TD*%
G04 APERTURE END LIST*
D10*
%TO.P,C2,1*%
%TO.N,GND*%
X75820000Y-45370000D03*
%TO.P,C2,2*%
%TO.N,+5V*%
X75820000Y-43470000D03*
%TD*%
%TO.P,C1,1*%
%TO.N,GND*%
X61980000Y-45370000D03*
%TO.P,C1,2*%
%TO.N,+5V*%
X61980000Y-43470000D03*
%TD*%
D11*
%TO.P,D2,1,VSS*%
%TO.N,GND*%
X82870000Y-46020000D03*
%TO.P,D2,2,DIN*%
%TO.N,Net-(D1-DOUT)*%
X82870000Y-42820000D03*
%TO.P,D2,3,VDD*%
%TO.N,+5V*%
X77970000Y-42820000D03*
%TO.P,D2,4,DOUT*%
%TO.N,DOUT*%
X77970000Y-46020000D03*
%TD*%
%TO.P,D1,1,VSS*%
%TO.N,GND*%
X59820000Y-46020000D03*
%TO.P,D1,2,DIN*%
%TO.N,DIN*%
X59820000Y-42820000D03*
%TO.P,D1,3,VDD*%
%TO.N,+5V*%
X54920000Y-42820000D03*
%TO.P,D1,4,DOUT*%
%TO.N,Net-(D1-DOUT)*%
X54920000Y-46020000D03*
%TD*%
D12*
%TO.P,J2,1,Pin_1*%
%TO.N,+5V*%
X84840000Y-41900000D03*
D13*
%TO.P,J2,2,Pin_2*%
%TO.N,DOUT*%
X84840000Y-44440000D03*
%TO.P,J2,3,Pin_3*%
%TO.N,GND*%
X84840000Y-46980000D03*
%TD*%
D12*
%TO.P,J1,1,Pin_1*%
%TO.N,+5V*%
X52940000Y-41900000D03*
D13*
%TO.P,J1,2,Pin_2*%
%TO.N,DIN*%
X52940000Y-44440000D03*
%TO.P,J1,3,Pin_3*%
%TO.N,GND*%
X52940000Y-46980000D03*
%TD*%
D14*
%TO.N,GND*%
X75760200Y-46235000D02*
X75820000Y-46175200D01*
D15*
X59815000Y-46020000D02*
X60866700Y-46020000D01*
D14*
X61320000Y-46020000D02*
X61970000Y-45370000D01*
D15*
X85044000Y-48189000D02*
X82875000Y-46020000D01*
X62043700Y-46743700D02*
X61320000Y-46020000D01*
X60866700Y-46020000D02*
X61320000Y-46020000D01*
X75820000Y-46175200D02*
X75820000Y-45370000D01*
D14*
%TO.N,DIN*%
X59815000Y-42820000D02*
X58763300Y-42820000D01*
X52940000Y-44440000D02*
X54091700Y-44440000D01*
X57620500Y-43962800D02*
X54568900Y-43962800D01*
X54568900Y-43962800D02*
X54091700Y-44440000D01*
X58763300Y-42820000D02*
X57620500Y-43962800D01*
%TO.N,Net-(D1-DOUT)*%
X55966700Y-46020000D02*
X57566700Y-44420000D01*
X82875000Y-42820000D02*
X81823300Y-42820000D01*
X80223300Y-44420000D02*
X81823300Y-42820000D01*
X57566700Y-44420000D02*
X80223300Y-44420000D01*
X54915000Y-46020000D02*
X55966700Y-46020000D01*
D15*
%TO.N,+5V*%
X77975000Y-42820000D02*
X76923300Y-42820000D01*
X53860000Y-42820000D02*
X52940000Y-41900000D01*
X54915000Y-42820000D02*
X53860000Y-42820000D01*
X76923300Y-42388300D02*
X76923300Y-42820000D01*
X52890000Y-41846700D02*
X52890000Y-40540000D01*
X75820000Y-42220000D02*
X75820000Y-43470000D01*
X61970000Y-40914300D02*
X61970000Y-43470000D01*
X76595000Y-42060000D02*
X76923300Y-42388300D01*
D14*
%TO.N,DOUT*%
X77975000Y-46020000D02*
X79026700Y-46020000D01*
X84840000Y-44440000D02*
X83688300Y-44440000D01*
X83211100Y-44917200D02*
X83688300Y-44440000D01*
X80129500Y-44917200D02*
X83211100Y-44917200D01*
X79026700Y-46020000D02*
X80129500Y-44917200D01*
%TD*%
%TA.AperFunction,Conductor*%
%TO.N,+5V*%
G36*
X91382539Y-39440185D02*
G01*
X91428294Y-39492989D01*
X91439500Y-39544500D01*
X91439500Y-42806000D01*
X91419815Y-42873039D01*
X91367011Y-42918794D01*
X91315500Y-42930000D01*
X86313740Y-42930000D01*
X86246701Y-42910315D01*
X86200946Y-42857511D01*
X86190257Y-42801149D01*
X86190000Y-42801149D01*
X86190000Y-42799795D01*
X86189918Y-42799363D01*
X86190000Y-42797833D01*
X86190000Y-42150000D01*
X85273012Y-42150000D01*
X85305925Y-42092993D01*
X85340000Y-41965826D01*
X85340000Y-41834174D01*
X85305925Y-41707007D01*
X85273012Y-41650000D01*
X86190000Y-41650000D01*
X86190000Y-41002172D01*
X86189999Y-41002155D01*
X86183598Y-40942627D01*
X86183596Y-40942620D01*
X86133354Y-40807913D01*
X86133350Y-40807906D01*
X86047190Y-40692812D01*
X86047187Y-40692809D01*
X85932093Y-40606649D01*
X85932086Y-40606645D01*
X85797379Y-40556403D01*
X85797372Y-40556401D01*
X85737844Y-40550000D01*
X85090000Y-40550000D01*
X85090000Y-41466988D01*
X85032993Y-41434075D01*
X84905826Y-41400000D01*
X84774174Y-41400000D01*
X84647007Y-41434075D01*
X84590000Y-41466988D01*
X84590000Y-40550000D01*
X83942155Y-40550000D01*
X83882627Y-40556401D01*
X83882620Y-40556403D01*
X83747913Y-40606645D01*
X83747906Y-40606649D01*
X83632812Y-40692809D01*
X83632809Y-40692812D01*
X83546649Y-40807906D01*
X83546645Y-40807913D01*
X83496403Y-40942620D01*
X83496401Y-40942627D01*
X83490000Y-41002155D01*
X83490000Y-41423542D01*
X83470315Y-41490581D01*
X83417511Y-41536336D01*
X83365496Y-41547541D01*
X76589999Y-41519999D01*
X76597759Y-42358116D01*
X76578696Y-42425335D01*
X76526317Y-42471577D01*
X76457254Y-42482160D01*
X76447819Y-42480519D01*
X76447707Y-42480495D01*
X76344986Y-42470000D01*
X76070000Y-42470000D01*
X76070000Y-42595621D01*
X75570000Y-42601027D01*
X75570000Y-42470000D01*
X75295029Y-42470000D01*
X75295012Y-42470001D01*
X75192302Y-42480494D01*
X75025880Y-42535641D01*
X75025866Y-42535648D01*
X74937587Y-42590098D01*
X74873834Y-42608552D01*
X74740000Y-42609999D01*
X74739999Y-42610000D01*
X74728744Y-42763812D01*
X74710614Y-42819858D01*
X74660646Y-42900871D01*
X74660641Y-42900880D01*
X74605494Y-43067302D01*
X74605493Y-43067309D01*
X74595000Y-43170013D01*
X74595000Y-43220000D01*
X74695366Y-43220000D01*
X74658780Y-43720000D01*
X74595001Y-43720000D01*
X74584816Y-43730184D01*
X74575316Y-43762539D01*
X74522512Y-43808294D01*
X74471001Y-43819500D01*
X63319000Y-43819500D01*
X63251961Y-43799815D01*
X63206206Y-43747011D01*
X63201811Y-43726811D01*
X63195000Y-43720000D01*
X63060000Y-43720000D01*
X63060000Y-43220000D01*
X63194999Y-43220000D01*
X63194999Y-43170028D01*
X63194998Y-43170013D01*
X63184505Y-43067302D01*
X63129358Y-42900880D01*
X63129354Y-42900871D01*
X63078461Y-42818360D01*
X63060000Y-42753264D01*
X63060000Y-42570000D01*
X62854992Y-42570000D01*
X62789896Y-42551539D01*
X62764128Y-42535646D01*
X62764119Y-42535641D01*
X62597697Y-42480494D01*
X62597690Y-42480493D01*
X62494986Y-42470000D01*
X62220000Y-42470000D01*
X62220000Y-42570000D01*
X61720000Y-42570000D01*
X61720000Y-42470000D01*
X61445029Y-42470000D01*
X61445012Y-42470001D01*
X61342302Y-42480494D01*
X61228503Y-42518204D01*
X61158675Y-42520606D01*
X61098633Y-42484874D01*
X61067440Y-42422354D01*
X61065499Y-42400498D01*
X61065499Y-42272129D01*
X61065498Y-42272123D01*
X61064240Y-42260423D01*
X61059091Y-42212517D01*
X61057036Y-42207007D01*
X61037818Y-42155479D01*
X61030000Y-42112147D01*
X61030000Y-41520000D01*
X54414000Y-41520000D01*
X54346961Y-41500315D01*
X54301206Y-41447511D01*
X54290000Y-41396000D01*
X54290000Y-41002172D01*
X54289999Y-41002155D01*
X54283598Y-40942627D01*
X54283596Y-40942620D01*
X54233354Y-40807913D01*
X54233350Y-40807906D01*
X54147190Y-40692812D01*
X54147187Y-40692809D01*
X54032093Y-40606649D01*
X54032086Y-40606645D01*
X53897379Y-40556403D01*
X53897372Y-40556401D01*
X53837844Y-40550000D01*
X53190000Y-40550000D01*
X53190000Y-41466988D01*
X53132993Y-41434075D01*
X53005826Y-41400000D01*
X52874174Y-41400000D01*
X52747007Y-41434075D01*
X52690000Y-41466988D01*
X52690000Y-40550000D01*
X52042155Y-40550000D01*
X51982627Y-40556401D01*
X51982620Y-40556403D01*
X51847913Y-40606645D01*
X51847906Y-40606649D01*
X51732812Y-40692809D01*
X51732809Y-40692812D01*
X51646649Y-40807906D01*
X51646645Y-40807913D01*
X51596403Y-40942620D01*
X51596401Y-40942627D01*
X51590000Y-41002155D01*
X51590000Y-41650000D01*
X52506988Y-41650000D01*
X52474075Y-41707007D01*
X52440000Y-41834174D01*
X52440000Y-41965826D01*
X52474075Y-42092993D01*
X52506988Y-42150000D01*
X51590000Y-42150000D01*
X51590000Y-42797844D01*
X51596401Y-42857372D01*
X51596403Y-42857379D01*
X51646645Y-42992086D01*
X51646649Y-42992093D01*
X51691263Y-43051689D01*
X51715681Y-43117153D01*
X51700830Y-43185426D01*
X51651425Y-43234832D01*
X51591997Y-43250000D01*
X46464500Y-43250000D01*
X46397461Y-43230315D01*
X46351706Y-43177511D01*
X46340500Y-43126000D01*
X46340500Y-39544500D01*
X46360185Y-39477461D01*
X46412989Y-39431706D01*
X46464500Y-39420500D01*
X91315500Y-39420500D01*
X91382539Y-39440185D01*
G37*
%TD.AperFunction*%
%TD*%
%TA.AperFunction,Conductor*%
%TO.N,GND*%
G36*
X74538039Y-45040185D02*
G01*
X74583794Y-45092989D01*
X74588188Y-45113188D01*
X74595000Y-45120000D01*
X74737482Y-45120000D01*
X74751871Y-45620000D01*
X74595001Y-45620000D01*
X74595001Y-45669986D01*
X74605494Y-45772697D01*
X74660641Y-45939119D01*
X74660643Y-45939124D01*
X74748514Y-46081584D01*
X74766924Y-46143114D01*
X74768049Y-46182210D01*
X74770000Y-46250000D01*
X74895881Y-46247444D01*
X74963303Y-46265762D01*
X74963493Y-46265878D01*
X75025875Y-46304356D01*
X75025880Y-46304358D01*
X75192302Y-46359505D01*
X75192309Y-46359506D01*
X75295019Y-46369999D01*
X75569999Y-46369999D01*
X75570000Y-46369998D01*
X75570000Y-46233756D01*
X76070000Y-46223604D01*
X76070000Y-46369999D01*
X76344972Y-46369999D01*
X76344986Y-46369998D01*
X76447695Y-46359506D01*
X76561495Y-46321796D01*
X76631324Y-46319394D01*
X76691366Y-46355125D01*
X76722559Y-46417646D01*
X76724500Y-46439501D01*
X76724500Y-46567869D01*
X76724501Y-46567876D01*
X76730908Y-46627481D01*
X76736713Y-46643044D01*
X76744525Y-46685196D01*
X76749999Y-47259999D01*
X76750000Y-47260000D01*
X83424983Y-47269508D01*
X83491989Y-47289287D01*
X83537669Y-47342156D01*
X83544575Y-47361412D01*
X83566568Y-47443490D01*
X83666399Y-47657578D01*
X83801894Y-47851082D01*
X83968917Y-48018105D01*
X84162421Y-48153600D01*
X84376507Y-48253429D01*
X84376516Y-48253433D01*
X84590000Y-48310634D01*
X84590000Y-47413012D01*
X84647007Y-47445925D01*
X84774174Y-47480000D01*
X84905826Y-47480000D01*
X85032993Y-47445925D01*
X85090000Y-47413012D01*
X85090000Y-48310633D01*
X85303483Y-48253433D01*
X85303492Y-48253429D01*
X85517578Y-48153600D01*
X85711082Y-48018105D01*
X85878105Y-47851082D01*
X86013600Y-47657578D01*
X86113429Y-47443492D01*
X86113432Y-47443486D01*
X86170636Y-47230000D01*
X85273012Y-47230000D01*
X85305925Y-47172993D01*
X85340000Y-47045826D01*
X85340000Y-46914174D01*
X85305925Y-46787007D01*
X85273012Y-46730000D01*
X86170636Y-46730000D01*
X86170635Y-46729999D01*
X86113432Y-46516513D01*
X86113429Y-46516507D01*
X86013601Y-46302424D01*
X85887534Y-46122382D01*
X85865207Y-46056175D01*
X85882217Y-45988408D01*
X85933165Y-45940595D01*
X85988953Y-45927258D01*
X91315351Y-45920616D01*
X91382409Y-45940216D01*
X91428230Y-45992963D01*
X91439500Y-46044615D01*
X91439500Y-49295500D01*
X91419815Y-49362539D01*
X91367011Y-49408294D01*
X91315500Y-49419500D01*
X46464500Y-49419500D01*
X46397461Y-49399815D01*
X46351706Y-49347011D01*
X46340500Y-49295500D01*
X46340500Y-45912700D01*
X46360185Y-45845661D01*
X46412989Y-45799906D01*
X46464179Y-45788701D01*
X51936258Y-45774883D01*
X52003343Y-45794398D01*
X52049231Y-45847086D01*
X52059349Y-45916219D01*
X52030485Y-45979848D01*
X52024249Y-45986563D01*
X51901886Y-46108926D01*
X51766400Y-46302420D01*
X51766399Y-46302422D01*
X51666570Y-46516507D01*
X51666567Y-46516513D01*
X51609364Y-46729999D01*
X51609364Y-46730000D01*
X52506988Y-46730000D01*
X52474075Y-46787007D01*
X52440000Y-46914174D01*
X52440000Y-47045826D01*
X52474075Y-47172993D01*
X52506988Y-47230000D01*
X51609364Y-47230000D01*
X51666567Y-47443486D01*
X51666570Y-47443492D01*
X51766399Y-47657578D01*
X51901894Y-47851082D01*
X52068917Y-48018105D01*
X52262421Y-48153600D01*
X52476507Y-48253429D01*
X52476516Y-48253433D01*
X52690000Y-48310634D01*
X52690000Y-47413012D01*
X52747007Y-47445925D01*
X52874174Y-47480000D01*
X53005826Y-47480000D01*
X53132993Y-47445925D01*
X53190000Y-47413012D01*
X53190000Y-48310633D01*
X53403483Y-48253433D01*
X53403492Y-48253429D01*
X53617578Y-48153600D01*
X53811082Y-48018105D01*
X53978105Y-47851082D01*
X54113600Y-47657578D01*
X54213429Y-47443492D01*
X54213432Y-47443487D01*
X54214707Y-47438727D01*
X54251066Y-47379063D01*
X54313910Y-47348527D01*
X54333627Y-47346811D01*
X61140000Y-47300000D01*
X61140000Y-46464188D01*
X61159685Y-46397149D01*
X61212489Y-46351394D01*
X61281647Y-46341450D01*
X61303006Y-46346483D01*
X61342300Y-46359504D01*
X61342309Y-46359506D01*
X61445019Y-46369999D01*
X61719999Y-46369999D01*
X61720000Y-46369998D01*
X61720000Y-46201122D01*
X62220000Y-46193469D01*
X62220000Y-46369999D01*
X62494972Y-46369999D01*
X62494986Y-46369998D01*
X62597697Y-46359505D01*
X62764119Y-46304358D01*
X62764124Y-46304356D01*
X62913345Y-46212315D01*
X62918362Y-46208349D01*
X62983158Y-46182210D01*
X62993373Y-46181632D01*
X63100000Y-46180000D01*
X63107713Y-46004134D01*
X63126060Y-45944466D01*
X63129359Y-45939118D01*
X63184505Y-45772697D01*
X63184506Y-45772690D01*
X63194999Y-45669986D01*
X63195000Y-45669973D01*
X63195000Y-45620000D01*
X63124561Y-45620000D01*
X63146491Y-45120000D01*
X63194997Y-45120000D01*
X63230112Y-45084885D01*
X63291435Y-45051400D01*
X63315742Y-45048583D01*
X65014503Y-45020516D01*
X65016539Y-45020500D01*
X74471000Y-45020500D01*
X74538039Y-45040185D01*
G37*
%TD.AperFunction*%
%TD*%
M02*
