%TF.GenerationSoftware,KiCad,Pcbnew,8.99.0-187-g1297ddc88d*%
%TF.CreationDate,2024-03-24T17:34:53-06:00*%
%TF.ProjectId,Carrot on a Stick,43617272-6f74-4206-9f6e-206120537469,rev?*%
%TF.SameCoordinates,Original*%
%TF.FileFunction,Legend,Top*%
%TF.FilePolarity,Positive*%
%FSLAX46Y46*%
G04 Gerber Fmt 4.6, Leading zero omitted, Abs format (unit mm)*
G04 Created by KiCad (PCBNEW 8.99.0-187-g1297ddc88d) date 2024-03-24 17:34:53*
%MOMM*%
%LPD*%
G01*
G04 APERTURE LIST*
G04 Aperture macros list*
%AMRoundRect*
0 Rectangle with rounded corners*
0 $1 Rounding radius*
0 $2 $3 $4 $5 $6 $7 $8 $9 X,Y pos of 4 corners*
0 Add a 4 corners polygon primitive as box body*
4,1,4,$2,$3,$4,$5,$6,$7,$8,$9,$2,$3,0*
0 Add four circle primitives for the rounded corners*
1,1,$1+$1,$2,$3*
1,1,$1+$1,$4,$5*
1,1,$1+$1,$6,$7*
1,1,$1+$1,$8,$9*
0 Add four rect primitives between the rounded corners*
20,1,$1+$1,$2,$3,$4,$5,0*
20,1,$1+$1,$4,$5,$6,$7,0*
20,1,$1+$1,$6,$7,$8,$9,0*
20,1,$1+$1,$8,$9,$2,$3,0*%
G04 Aperture macros list end*
%ADD10C,0.150000*%
%ADD11C,0.120000*%
%ADD12R,1.500000X1.000000*%
%ADD13RoundRect,0.237500X0.237500X-0.300000X0.237500X0.300000X-0.237500X0.300000X-0.237500X-0.300000X0*%
%ADD14R,1.700000X1.700000*%
%ADD15O,1.700000X1.700000*%
G04 APERTURE END LIST*
D10*
X63888207Y-59774580D02*
X63840588Y-59822200D01*
X63840588Y-59822200D02*
X63697731Y-59869819D01*
X63697731Y-59869819D02*
X63602493Y-59869819D01*
X63602493Y-59869819D02*
X63459636Y-59822200D01*
X63459636Y-59822200D02*
X63364398Y-59726961D01*
X63364398Y-59726961D02*
X63316779Y-59631723D01*
X63316779Y-59631723D02*
X63269160Y-59441247D01*
X63269160Y-59441247D02*
X63269160Y-59298390D01*
X63269160Y-59298390D02*
X63316779Y-59107914D01*
X63316779Y-59107914D02*
X63364398Y-59012676D01*
X63364398Y-59012676D02*
X63459636Y-58917438D01*
X63459636Y-58917438D02*
X63602493Y-58869819D01*
X63602493Y-58869819D02*
X63697731Y-58869819D01*
X63697731Y-58869819D02*
X63840588Y-58917438D01*
X63840588Y-58917438D02*
X63888207Y-58965057D01*
X64745350Y-59869819D02*
X64745350Y-59346009D01*
X64745350Y-59346009D02*
X64697731Y-59250771D01*
X64697731Y-59250771D02*
X64602493Y-59203152D01*
X64602493Y-59203152D02*
X64412017Y-59203152D01*
X64412017Y-59203152D02*
X64316779Y-59250771D01*
X64745350Y-59822200D02*
X64650112Y-59869819D01*
X64650112Y-59869819D02*
X64412017Y-59869819D01*
X64412017Y-59869819D02*
X64316779Y-59822200D01*
X64316779Y-59822200D02*
X64269160Y-59726961D01*
X64269160Y-59726961D02*
X64269160Y-59631723D01*
X64269160Y-59631723D02*
X64316779Y-59536485D01*
X64316779Y-59536485D02*
X64412017Y-59488866D01*
X64412017Y-59488866D02*
X64650112Y-59488866D01*
X64650112Y-59488866D02*
X64745350Y-59441247D01*
X65221541Y-59869819D02*
X65221541Y-59203152D01*
X65221541Y-59393628D02*
X65269160Y-59298390D01*
X65269160Y-59298390D02*
X65316779Y-59250771D01*
X65316779Y-59250771D02*
X65412017Y-59203152D01*
X65412017Y-59203152D02*
X65507255Y-59203152D01*
X65840589Y-59869819D02*
X65840589Y-59203152D01*
X65840589Y-59393628D02*
X65888208Y-59298390D01*
X65888208Y-59298390D02*
X65935827Y-59250771D01*
X65935827Y-59250771D02*
X66031065Y-59203152D01*
X66031065Y-59203152D02*
X66126303Y-59203152D01*
X66602494Y-59869819D02*
X66507256Y-59822200D01*
X66507256Y-59822200D02*
X66459637Y-59774580D01*
X66459637Y-59774580D02*
X66412018Y-59679342D01*
X66412018Y-59679342D02*
X66412018Y-59393628D01*
X66412018Y-59393628D02*
X66459637Y-59298390D01*
X66459637Y-59298390D02*
X66507256Y-59250771D01*
X66507256Y-59250771D02*
X66602494Y-59203152D01*
X66602494Y-59203152D02*
X66745351Y-59203152D01*
X66745351Y-59203152D02*
X66840589Y-59250771D01*
X66840589Y-59250771D02*
X66888208Y-59298390D01*
X66888208Y-59298390D02*
X66935827Y-59393628D01*
X66935827Y-59393628D02*
X66935827Y-59679342D01*
X66935827Y-59679342D02*
X66888208Y-59774580D01*
X66888208Y-59774580D02*
X66840589Y-59822200D01*
X66840589Y-59822200D02*
X66745351Y-59869819D01*
X66745351Y-59869819D02*
X66602494Y-59869819D01*
X67221542Y-59203152D02*
X67602494Y-59203152D01*
X67364399Y-58869819D02*
X67364399Y-59726961D01*
X67364399Y-59726961D02*
X67412018Y-59822200D01*
X67412018Y-59822200D02*
X67507256Y-59869819D01*
X67507256Y-59869819D02*
X67602494Y-59869819D01*
X68840590Y-59869819D02*
X68745352Y-59822200D01*
X68745352Y-59822200D02*
X68697733Y-59774580D01*
X68697733Y-59774580D02*
X68650114Y-59679342D01*
X68650114Y-59679342D02*
X68650114Y-59393628D01*
X68650114Y-59393628D02*
X68697733Y-59298390D01*
X68697733Y-59298390D02*
X68745352Y-59250771D01*
X68745352Y-59250771D02*
X68840590Y-59203152D01*
X68840590Y-59203152D02*
X68983447Y-59203152D01*
X68983447Y-59203152D02*
X69078685Y-59250771D01*
X69078685Y-59250771D02*
X69126304Y-59298390D01*
X69126304Y-59298390D02*
X69173923Y-59393628D01*
X69173923Y-59393628D02*
X69173923Y-59679342D01*
X69173923Y-59679342D02*
X69126304Y-59774580D01*
X69126304Y-59774580D02*
X69078685Y-59822200D01*
X69078685Y-59822200D02*
X68983447Y-59869819D01*
X68983447Y-59869819D02*
X68840590Y-59869819D01*
X69602495Y-59203152D02*
X69602495Y-59869819D01*
X69602495Y-59298390D02*
X69650114Y-59250771D01*
X69650114Y-59250771D02*
X69745352Y-59203152D01*
X69745352Y-59203152D02*
X69888209Y-59203152D01*
X69888209Y-59203152D02*
X69983447Y-59250771D01*
X69983447Y-59250771D02*
X70031066Y-59346009D01*
X70031066Y-59346009D02*
X70031066Y-59869819D01*
X71697733Y-59869819D02*
X71697733Y-59346009D01*
X71697733Y-59346009D02*
X71650114Y-59250771D01*
X71650114Y-59250771D02*
X71554876Y-59203152D01*
X71554876Y-59203152D02*
X71364400Y-59203152D01*
X71364400Y-59203152D02*
X71269162Y-59250771D01*
X71697733Y-59822200D02*
X71602495Y-59869819D01*
X71602495Y-59869819D02*
X71364400Y-59869819D01*
X71364400Y-59869819D02*
X71269162Y-59822200D01*
X71269162Y-59822200D02*
X71221543Y-59726961D01*
X71221543Y-59726961D02*
X71221543Y-59631723D01*
X71221543Y-59631723D02*
X71269162Y-59536485D01*
X71269162Y-59536485D02*
X71364400Y-59488866D01*
X71364400Y-59488866D02*
X71602495Y-59488866D01*
X71602495Y-59488866D02*
X71697733Y-59441247D01*
X72888210Y-59822200D02*
X73031067Y-59869819D01*
X73031067Y-59869819D02*
X73269162Y-59869819D01*
X73269162Y-59869819D02*
X73364400Y-59822200D01*
X73364400Y-59822200D02*
X73412019Y-59774580D01*
X73412019Y-59774580D02*
X73459638Y-59679342D01*
X73459638Y-59679342D02*
X73459638Y-59584104D01*
X73459638Y-59584104D02*
X73412019Y-59488866D01*
X73412019Y-59488866D02*
X73364400Y-59441247D01*
X73364400Y-59441247D02*
X73269162Y-59393628D01*
X73269162Y-59393628D02*
X73078686Y-59346009D01*
X73078686Y-59346009D02*
X72983448Y-59298390D01*
X72983448Y-59298390D02*
X72935829Y-59250771D01*
X72935829Y-59250771D02*
X72888210Y-59155533D01*
X72888210Y-59155533D02*
X72888210Y-59060295D01*
X72888210Y-59060295D02*
X72935829Y-58965057D01*
X72935829Y-58965057D02*
X72983448Y-58917438D01*
X72983448Y-58917438D02*
X73078686Y-58869819D01*
X73078686Y-58869819D02*
X73316781Y-58869819D01*
X73316781Y-58869819D02*
X73459638Y-58917438D01*
X73745353Y-59203152D02*
X74126305Y-59203152D01*
X73888210Y-58869819D02*
X73888210Y-59726961D01*
X73888210Y-59726961D02*
X73935829Y-59822200D01*
X73935829Y-59822200D02*
X74031067Y-59869819D01*
X74031067Y-59869819D02*
X74126305Y-59869819D01*
X74459639Y-59869819D02*
X74459639Y-59203152D01*
X74459639Y-58869819D02*
X74412020Y-58917438D01*
X74412020Y-58917438D02*
X74459639Y-58965057D01*
X74459639Y-58965057D02*
X74507258Y-58917438D01*
X74507258Y-58917438D02*
X74459639Y-58869819D01*
X74459639Y-58869819D02*
X74459639Y-58965057D01*
X75364400Y-59822200D02*
X75269162Y-59869819D01*
X75269162Y-59869819D02*
X75078686Y-59869819D01*
X75078686Y-59869819D02*
X74983448Y-59822200D01*
X74983448Y-59822200D02*
X74935829Y-59774580D01*
X74935829Y-59774580D02*
X74888210Y-59679342D01*
X74888210Y-59679342D02*
X74888210Y-59393628D01*
X74888210Y-59393628D02*
X74935829Y-59298390D01*
X74935829Y-59298390D02*
X74983448Y-59250771D01*
X74983448Y-59250771D02*
X75078686Y-59203152D01*
X75078686Y-59203152D02*
X75269162Y-59203152D01*
X75269162Y-59203152D02*
X75364400Y-59250771D01*
X75792972Y-59869819D02*
X75792972Y-58869819D01*
X75888210Y-59488866D02*
X76173924Y-59869819D01*
X76173924Y-59203152D02*
X75792972Y-59584104D01*
X103411905Y-52454819D02*
X103411905Y-51454819D01*
X103411905Y-51454819D02*
X103650000Y-51454819D01*
X103650000Y-51454819D02*
X103792857Y-51502438D01*
X103792857Y-51502438D02*
X103888095Y-51597676D01*
X103888095Y-51597676D02*
X103935714Y-51692914D01*
X103935714Y-51692914D02*
X103983333Y-51883390D01*
X103983333Y-51883390D02*
X103983333Y-52026247D01*
X103983333Y-52026247D02*
X103935714Y-52216723D01*
X103935714Y-52216723D02*
X103888095Y-52311961D01*
X103888095Y-52311961D02*
X103792857Y-52407200D01*
X103792857Y-52407200D02*
X103650000Y-52454819D01*
X103650000Y-52454819D02*
X103411905Y-52454819D01*
X104840476Y-51788152D02*
X104840476Y-52454819D01*
X104602381Y-51407200D02*
X104364286Y-52121485D01*
X104364286Y-52121485D02*
X104983333Y-52121485D01*
X57311905Y-52454819D02*
X57311905Y-51454819D01*
X57311905Y-51454819D02*
X57550000Y-51454819D01*
X57550000Y-51454819D02*
X57692857Y-51502438D01*
X57692857Y-51502438D02*
X57788095Y-51597676D01*
X57788095Y-51597676D02*
X57835714Y-51692914D01*
X57835714Y-51692914D02*
X57883333Y-51883390D01*
X57883333Y-51883390D02*
X57883333Y-52026247D01*
X57883333Y-52026247D02*
X57835714Y-52216723D01*
X57835714Y-52216723D02*
X57788095Y-52311961D01*
X57788095Y-52311961D02*
X57692857Y-52407200D01*
X57692857Y-52407200D02*
X57550000Y-52454819D01*
X57550000Y-52454819D02*
X57311905Y-52454819D01*
X58264286Y-51550057D02*
X58311905Y-51502438D01*
X58311905Y-51502438D02*
X58407143Y-51454819D01*
X58407143Y-51454819D02*
X58645238Y-51454819D01*
X58645238Y-51454819D02*
X58740476Y-51502438D01*
X58740476Y-51502438D02*
X58788095Y-51550057D01*
X58788095Y-51550057D02*
X58835714Y-51645295D01*
X58835714Y-51645295D02*
X58835714Y-51740533D01*
X58835714Y-51740533D02*
X58788095Y-51883390D01*
X58788095Y-51883390D02*
X58216667Y-52454819D01*
X58216667Y-52454819D02*
X58835714Y-52454819D01*
X34261905Y-52454819D02*
X34261905Y-51454819D01*
X34261905Y-51454819D02*
X34500000Y-51454819D01*
X34500000Y-51454819D02*
X34642857Y-51502438D01*
X34642857Y-51502438D02*
X34738095Y-51597676D01*
X34738095Y-51597676D02*
X34785714Y-51692914D01*
X34785714Y-51692914D02*
X34833333Y-51883390D01*
X34833333Y-51883390D02*
X34833333Y-52026247D01*
X34833333Y-52026247D02*
X34785714Y-52216723D01*
X34785714Y-52216723D02*
X34738095Y-52311961D01*
X34738095Y-52311961D02*
X34642857Y-52407200D01*
X34642857Y-52407200D02*
X34500000Y-52454819D01*
X34500000Y-52454819D02*
X34261905Y-52454819D01*
X35785714Y-52454819D02*
X35214286Y-52454819D01*
X35500000Y-52454819D02*
X35500000Y-51454819D01*
X35500000Y-51454819D02*
X35404762Y-51597676D01*
X35404762Y-51597676D02*
X35309524Y-51692914D01*
X35309524Y-51692914D02*
X35214286Y-51740533D01*
X80361905Y-52454819D02*
X80361905Y-51454819D01*
X80361905Y-51454819D02*
X80600000Y-51454819D01*
X80600000Y-51454819D02*
X80742857Y-51502438D01*
X80742857Y-51502438D02*
X80838095Y-51597676D01*
X80838095Y-51597676D02*
X80885714Y-51692914D01*
X80885714Y-51692914D02*
X80933333Y-51883390D01*
X80933333Y-51883390D02*
X80933333Y-52026247D01*
X80933333Y-52026247D02*
X80885714Y-52216723D01*
X80885714Y-52216723D02*
X80838095Y-52311961D01*
X80838095Y-52311961D02*
X80742857Y-52407200D01*
X80742857Y-52407200D02*
X80600000Y-52454819D01*
X80600000Y-52454819D02*
X80361905Y-52454819D01*
X81266667Y-51454819D02*
X81885714Y-51454819D01*
X81885714Y-51454819D02*
X81552381Y-51835771D01*
X81552381Y-51835771D02*
X81695238Y-51835771D01*
X81695238Y-51835771D02*
X81790476Y-51883390D01*
X81790476Y-51883390D02*
X81838095Y-51931009D01*
X81838095Y-51931009D02*
X81885714Y-52026247D01*
X81885714Y-52026247D02*
X81885714Y-52264342D01*
X81885714Y-52264342D02*
X81838095Y-52359580D01*
X81838095Y-52359580D02*
X81790476Y-52407200D01*
X81790476Y-52407200D02*
X81695238Y-52454819D01*
X81695238Y-52454819D02*
X81409524Y-52454819D01*
X81409524Y-52454819D02*
X81314286Y-52407200D01*
X81314286Y-52407200D02*
X81266667Y-52359580D01*
D11*
%TO.C,D4*%
X100500000Y-52750000D02*
X107800000Y-52750000D01*
X100500000Y-58250000D02*
X107800000Y-58250000D01*
X107800000Y-58250000D02*
X107800000Y-57100000D01*
%TO.C,C1*%
X39220000Y-55646267D02*
X39220000Y-55353733D01*
X40240000Y-55646267D02*
X40240000Y-55353733D01*
%TO.C,D2*%
X54400000Y-52750000D02*
X61700000Y-52750000D01*
X54400000Y-58250000D02*
X61700000Y-58250000D01*
X61700000Y-58250000D02*
X61700000Y-57100000D01*
%TO.C,D1*%
X31350000Y-52750000D02*
X38650000Y-52750000D01*
X31350000Y-58250000D02*
X38650000Y-58250000D01*
X38650000Y-58250000D02*
X38650000Y-57100000D01*
%TO.C,D3*%
X77450000Y-52750000D02*
X84750000Y-52750000D01*
X77450000Y-58250000D02*
X84750000Y-58250000D01*
X84750000Y-58250000D02*
X84750000Y-57100000D01*
%TO.C,C2*%
X52860000Y-55646267D02*
X52860000Y-55353733D01*
X53880000Y-55646267D02*
X53880000Y-55353733D01*
%TO.C,C4*%
X99040000Y-55646267D02*
X99040000Y-55353733D01*
X100060000Y-55646267D02*
X100060000Y-55353733D01*
%TO.C,C3*%
X85300000Y-55646267D02*
X85300000Y-55353733D01*
X86320000Y-55646267D02*
X86320000Y-55353733D01*
%TD*%
%LPC*%
D12*
%TO.C,D4*%
X106600000Y-57100000D03*
X106600000Y-53900000D03*
X101700000Y-53900000D03*
X101700000Y-57100000D03*
%TD*%
D13*
%TO.C,C1*%
X39730000Y-56362500D03*
X39730000Y-54637500D03*
%TD*%
D12*
%TO.C,D2*%
X60500000Y-57100000D03*
X60500000Y-53900000D03*
X55600000Y-53900000D03*
X55600000Y-57100000D03*
%TD*%
%TO.C,D1*%
X37450000Y-57100000D03*
X37450000Y-53900000D03*
X32550000Y-53900000D03*
X32550000Y-57100000D03*
%TD*%
%TO.C,D3*%
X83550000Y-57100000D03*
X83550000Y-53900000D03*
X78650000Y-53900000D03*
X78650000Y-57100000D03*
%TD*%
D13*
%TO.C,C2*%
X53370000Y-56362500D03*
X53370000Y-54637500D03*
%TD*%
%TO.C,C4*%
X99550000Y-56362500D03*
X99550000Y-54637500D03*
%TD*%
%TO.C,C3*%
X85810000Y-56362500D03*
X85810000Y-54637500D03*
%TD*%
D14*
%TO.C,J1*%
X30595000Y-52955000D03*
D15*
X30595000Y-55495000D03*
X30595000Y-58035000D03*
%TD*%
D14*
%TO.C,J2*%
X108550000Y-52955000D03*
D15*
X108550000Y-55495000D03*
X108550000Y-58035000D03*
%TD*%
%LPD*%
M02*
