M48
INCH
T1C0.0157
T2C0.0394
%
G90
G05
T1
X1.3357Y-2.122
X1.3476Y-2.248
X1.6069Y-2.1554
X2.0522Y-2.2097
X2.3074Y-2.248
X3.0393Y-2.248
X3.1536Y-2.248
X3.1635Y-2.2916
X3.2046Y-2.122
X3.2433Y-2.0356
X4.0778Y-2.1502
X4.0821Y-2.1995
X4.1141Y-2.122
X4.1399Y-2.248
T2
X1.2045Y-2.0848
X1.2045Y-2.1848
X1.2045Y-2.2848
X4.2736Y-2.0848
X4.2736Y-2.1848
X4.2736Y-2.2848
M30
