%TF.GenerationSoftware,KiCad,Pcbnew,8.99.0-187-g1297ddc88d*%
%TF.CreationDate,2024-03-24T17:34:53-06:00*%
%TF.ProjectId,Carrot on a Stick,43617272-6f74-4206-9f6e-206120537469,rev?*%
%TF.SameCoordinates,Original*%
%TF.FileFunction,Copper,L2,Bot*%
%TF.FilePolarity,Positive*%
%FSLAX46Y46*%
G04 Gerber Fmt 4.6, Leading zero omitted, Abs format (unit mm)*
G04 Created by KiCad (PCBNEW 8.99.0-187-g1297ddc88d) date 2024-03-24 17:34:53*
%MOMM*%
%LPD*%
G01*
G04 APERTURE LIST*
%TA.AperFunction,ComponentPad*%
%ADD10R,1.700000X1.700000*%
%TD*%
%TA.AperFunction,ComponentPad*%
%ADD11O,1.700000X1.700000*%
%TD*%
%TA.AperFunction,ViaPad*%
%ADD12C,0.800000*%
%TD*%
%TA.AperFunction,Conductor*%
%ADD13C,1.000000*%
%TD*%
%TA.AperFunction,Conductor*%
%ADD14C,0.500000*%
%TD*%
G04 APERTURE END LIST*
D10*
%TO.P,J1,1,Pin_1*%
%TO.N,+5V*%
X30595000Y-52955000D03*
D11*
%TO.P,J1,2,Pin_2*%
%TO.N,DIN*%
X30595000Y-55495000D03*
%TO.P,J1,3,Pin_3*%
%TO.N,GND*%
X30595000Y-58035000D03*
%TD*%
D10*
%TO.P,J2,1,Pin_1*%
%TO.N,+5V*%
X108550000Y-52955000D03*
D11*
%TO.P,J2,2,Pin_2*%
%TO.N,DOUT*%
X108550000Y-55495000D03*
%TO.P,J2,3,Pin_3*%
%TO.N,GND*%
X108550000Y-58035000D03*
%TD*%
D12*
%TO.N,GND*%
X58607300Y-57100000D03*
X103685900Y-55868200D03*
X52126700Y-56127000D03*
X105154200Y-57100000D03*
X77198100Y-57100000D03*
X80101900Y-57100000D03*
X34229200Y-57100000D03*
%TO.N,Net-(D3-DOUT)*%
X80352800Y-58207300D03*
X82379200Y-51705000D03*
%TO.N,+5V*%
X33927800Y-53900000D03*
X103576000Y-54615600D03*
X81396300Y-53900000D03*
X104498400Y-53900000D03*
X40816000Y-54747800D03*
%TD*%
D13*
%TO.N,GND*%
X33294200Y-58035000D02*
X34229200Y-57100000D01*
X104917700Y-57100000D02*
X103685900Y-55868200D01*
X52126700Y-56127000D02*
X53099700Y-57100000D01*
X77198100Y-57100000D02*
X80101900Y-57100000D01*
X106089200Y-58035000D02*
X105154200Y-57100000D01*
X30595000Y-58035000D02*
X33294200Y-58035000D01*
X108550000Y-58035000D02*
X106089200Y-58035000D01*
X105154200Y-57100000D02*
X104917700Y-57100000D01*
X53099700Y-57100000D02*
X58607300Y-57100000D01*
D14*
%TO.N,Net-(D3-DOUT)*%
X81058100Y-55044700D02*
X81058100Y-57502000D01*
X80496900Y-53587300D02*
X80496900Y-54483500D01*
X80496900Y-54483500D02*
X81058100Y-55044700D01*
X81058100Y-57502000D02*
X80352800Y-58207300D01*
X82379200Y-51705000D02*
X80496900Y-53587300D01*
%TO.N,+5V*%
X30595000Y-52955000D02*
X31945000Y-52955000D01*
X33927800Y-53900000D02*
X39968200Y-53900000D01*
X105443400Y-52955000D02*
X104498400Y-53900000D01*
X108550000Y-52955000D02*
X105443400Y-52955000D01*
X39968200Y-53900000D02*
X40816000Y-54747800D01*
X31945000Y-52955000D02*
X32890000Y-53900000D01*
X104291600Y-53900000D02*
X103576000Y-54615600D01*
X104498400Y-53900000D02*
X104291600Y-53900000D01*
X32890000Y-53900000D02*
X33927800Y-53900000D01*
X102860400Y-53900000D02*
X81396300Y-53900000D01*
X103576000Y-54615600D02*
X102860400Y-53900000D01*
%TD*%
M02*
