%TF.GenerationSoftware,KiCad,Pcbnew,8.99.0-187-g1297ddc88d*%
%TF.CreationDate,2024-03-24T17:34:52-06:00*%
%TF.ProjectId,Carrot on a Stick,43617272-6f74-4206-9f6e-206120537469,rev?*%
%TF.SameCoordinates,Original*%
%TF.FileFunction,Copper,L1,Top*%
%TF.FilePolarity,Positive*%
%FSLAX46Y46*%
G04 Gerber Fmt 4.6, Leading zero omitted, Abs format (unit mm)*
G04 Created by KiCad (PCBNEW 8.99.0-187-g1297ddc88d) date 2024-03-24 17:34:52*
%MOMM*%
%LPD*%
G01*
G04 APERTURE LIST*
G04 Aperture macros list*
%AMRoundRect*
0 Rectangle with rounded corners*
0 $1 Rounding radius*
0 $2 $3 $4 $5 $6 $7 $8 $9 X,Y pos of 4 corners*
0 Add a 4 corners polygon primitive as box body*
4,1,4,$2,$3,$4,$5,$6,$7,$8,$9,$2,$3,0*
0 Add four circle primitives for the rounded corners*
1,1,$1+$1,$2,$3*
1,1,$1+$1,$4,$5*
1,1,$1+$1,$6,$7*
1,1,$1+$1,$8,$9*
0 Add four rect primitives between the rounded corners*
20,1,$1+$1,$2,$3,$4,$5,0*
20,1,$1+$1,$4,$5,$6,$7,0*
20,1,$1+$1,$6,$7,$8,$9,0*
20,1,$1+$1,$8,$9,$2,$3,0*%
G04 Aperture macros list end*
%TA.AperFunction,SMDPad,CuDef*%
%ADD10R,1.500000X1.000000*%
%TD*%
%TA.AperFunction,SMDPad,CuDef*%
%ADD11RoundRect,0.237500X0.237500X-0.300000X0.237500X0.300000X-0.237500X0.300000X-0.237500X-0.300000X0*%
%TD*%
%TA.AperFunction,ComponentPad*%
%ADD12R,1.700000X1.700000*%
%TD*%
%TA.AperFunction,ComponentPad*%
%ADD13O,1.700000X1.700000*%
%TD*%
%TA.AperFunction,ViaPad*%
%ADD14C,0.800000*%
%TD*%
%TA.AperFunction,Conductor*%
%ADD15C,1.000000*%
%TD*%
%TA.AperFunction,Conductor*%
%ADD16C,0.951600*%
%TD*%
%TA.AperFunction,Conductor*%
%ADD17C,0.500000*%
%TD*%
G04 APERTURE END LIST*
D10*
%TO.P,D4,1,VSS*%
%TO.N,GND*%
X106600000Y-57100000D03*
%TO.P,D4,2,DIN*%
%TO.N,Net-(D3-DOUT)*%
X106600000Y-53900000D03*
%TO.P,D4,3,VDD*%
%TO.N,+5V*%
X101700000Y-53900000D03*
%TO.P,D4,4,DOUT*%
%TO.N,DOUT*%
X101700000Y-57100000D03*
%TD*%
D11*
%TO.P,C1,1*%
%TO.N,GND*%
X39730000Y-56362500D03*
%TO.P,C1,2*%
%TO.N,+5V*%
X39730000Y-54637500D03*
%TD*%
D10*
%TO.P,D2,1,VSS*%
%TO.N,GND*%
X60500000Y-57100000D03*
%TO.P,D2,2,DIN*%
%TO.N,Net-(D1-DOUT)*%
X60500000Y-53900000D03*
%TO.P,D2,3,VDD*%
%TO.N,+5V*%
X55600000Y-53900000D03*
%TO.P,D2,4,DOUT*%
%TO.N,Net-(D2-DOUT)*%
X55600000Y-57100000D03*
%TD*%
%TO.P,D1,1,VSS*%
%TO.N,GND*%
X37450000Y-57100000D03*
%TO.P,D1,2,DIN*%
%TO.N,DIN*%
X37450000Y-53900000D03*
%TO.P,D1,3,VDD*%
%TO.N,+5V*%
X32550000Y-53900000D03*
%TO.P,D1,4,DOUT*%
%TO.N,Net-(D1-DOUT)*%
X32550000Y-57100000D03*
%TD*%
%TO.P,D3,1,VSS*%
%TO.N,GND*%
X83550000Y-57100000D03*
%TO.P,D3,2,DIN*%
%TO.N,Net-(D2-DOUT)*%
X83550000Y-53900000D03*
%TO.P,D3,3,VDD*%
%TO.N,+5V*%
X78650000Y-53900000D03*
%TO.P,D3,4,DOUT*%
%TO.N,Net-(D3-DOUT)*%
X78650000Y-57100000D03*
%TD*%
D11*
%TO.P,C2,1*%
%TO.N,GND*%
X53370000Y-56362500D03*
%TO.P,C2,2*%
%TO.N,+5V*%
X53370000Y-54637500D03*
%TD*%
%TO.P,C4,1*%
%TO.N,GND*%
X99550000Y-56362500D03*
%TO.P,C4,2*%
%TO.N,+5V*%
X99550000Y-54637500D03*
%TD*%
%TO.P,C3,1*%
%TO.N,GND*%
X85810000Y-56362500D03*
%TO.P,C3,2*%
%TO.N,+5V*%
X85810000Y-54637500D03*
%TD*%
D12*
%TO.P,J1,1,Pin_1*%
%TO.N,+5V*%
X30595000Y-52955000D03*
D13*
%TO.P,J1,2,Pin_2*%
%TO.N,DIN*%
X30595000Y-55495000D03*
%TO.P,J1,3,Pin_3*%
%TO.N,GND*%
X30595000Y-58035000D03*
%TD*%
D12*
%TO.P,J2,1,Pin_1*%
%TO.N,+5V*%
X108550000Y-52955000D03*
D13*
%TO.P,J2,2,Pin_2*%
%TO.N,DOUT*%
X108550000Y-55495000D03*
%TO.P,J2,3,Pin_3*%
%TO.N,GND*%
X108550000Y-58035000D03*
%TD*%
D14*
%TO.N,GND*%
X58607300Y-57100000D03*
X103685900Y-55868200D03*
X52126700Y-56127000D03*
X105154200Y-57100000D03*
X77198100Y-57100000D03*
X80101900Y-57100000D03*
X34229200Y-57100000D03*
%TO.N,Net-(D3-DOUT)*%
X80352800Y-58207300D03*
X82379200Y-51705000D03*
%TO.N,+5V*%
X33927800Y-53900000D03*
X103576000Y-54615600D03*
X81396300Y-53900000D03*
X104498400Y-53900000D03*
X40816000Y-54747800D03*
%TD*%
D15*
%TO.N,GND*%
X39730000Y-56362500D02*
X53370000Y-56362500D01*
X85810000Y-56362500D02*
X85072500Y-57100000D01*
X103685900Y-55868200D02*
X100257700Y-55868200D01*
X85072500Y-57100000D02*
X83550000Y-57100000D01*
X34229200Y-57100000D02*
X37450000Y-57100000D01*
X52126700Y-56127000D02*
X53134500Y-56127000D01*
X60500000Y-57100000D02*
X77198100Y-57100000D01*
X38992500Y-57100000D02*
X39730000Y-56362500D01*
X53134500Y-56127000D02*
X53370000Y-56362500D01*
D16*
X100036200Y-55876300D02*
X99793100Y-56119400D01*
D15*
X100257700Y-55868200D02*
X100249600Y-55876300D01*
D16*
X100249600Y-55876300D02*
X100036200Y-55876300D01*
D15*
X60500000Y-57100000D02*
X58607300Y-57100000D01*
X106600000Y-57100000D02*
X105154200Y-57100000D01*
X83550000Y-57100000D02*
X80101900Y-57100000D01*
X99793100Y-56119400D02*
X99550000Y-56119400D01*
D16*
X99550000Y-56119400D02*
X99550000Y-56362500D01*
D15*
X37450000Y-57100000D02*
X38992500Y-57100000D01*
X99550000Y-56362500D02*
X85810000Y-56362500D01*
D17*
%TO.N,DIN*%
X37450000Y-53900000D02*
X36553600Y-53900000D01*
X32986500Y-55495000D02*
X30595000Y-55495000D01*
X33688400Y-54793100D02*
X32986500Y-55495000D01*
X36553600Y-53900000D02*
X35660500Y-54793100D01*
X35660500Y-54793100D02*
X33688400Y-54793100D01*
%TO.N,Net-(D1-DOUT)*%
X39892800Y-52918500D02*
X38802200Y-54009100D01*
X58268500Y-52918500D02*
X39892800Y-52918500D01*
X38802200Y-54009100D02*
X38802200Y-54535800D01*
X59250000Y-53900000D02*
X58268500Y-52918500D01*
X33804900Y-55845100D02*
X32550000Y-57100000D01*
X60500000Y-53900000D02*
X59250000Y-53900000D01*
X37492900Y-55845100D02*
X33804900Y-55845100D01*
X38802200Y-54535800D02*
X37492900Y-55845100D01*
%TO.N,Net-(D2-DOUT)*%
X80744000Y-55809600D02*
X82653600Y-53900000D01*
X56850000Y-57100000D02*
X58140400Y-55809600D01*
X55600000Y-57100000D02*
X56850000Y-57100000D01*
X58140400Y-55809600D02*
X80744000Y-55809600D01*
X83550000Y-53900000D02*
X82653600Y-53900000D01*
%TO.N,Net-(D3-DOUT)*%
X104405000Y-51705000D02*
X82379200Y-51705000D01*
X78650000Y-57100000D02*
X79757300Y-58207300D01*
X79757300Y-58207300D02*
X80352800Y-58207300D01*
X106600000Y-53900000D02*
X104405000Y-51705000D01*
%TO.N,+5V*%
X101700000Y-53900000D02*
X104498400Y-53900000D01*
X55600000Y-53900000D02*
X54107500Y-53900000D01*
X100095100Y-54615600D02*
X103576000Y-54615600D01*
X40926300Y-54637500D02*
X40816000Y-54747800D01*
X99550000Y-54637500D02*
X85810000Y-54637500D01*
X99970000Y-54675000D02*
X100062000Y-54582500D01*
X78650000Y-53900000D02*
X81396300Y-53900000D01*
X77400000Y-53900000D02*
X76448100Y-54851900D01*
X39840300Y-54747800D02*
X39730000Y-54637500D01*
X54107500Y-53900000D02*
X53370000Y-54637500D01*
X40816000Y-54747800D02*
X39840300Y-54747800D01*
X76448100Y-54851900D02*
X53584400Y-54851900D01*
X32550000Y-53900000D02*
X33927800Y-53900000D01*
X100062000Y-54582500D02*
X100095100Y-54615600D01*
X99748200Y-54896800D02*
X99970000Y-54675000D01*
X53370000Y-54637500D02*
X40926300Y-54637500D01*
X78025000Y-53900000D02*
X77400000Y-53900000D01*
X78025000Y-53900000D02*
X78650000Y-53900000D01*
X99970000Y-54675000D02*
X99932500Y-54637500D01*
X99932500Y-54637500D02*
X99550000Y-54637500D01*
X53584400Y-54851900D02*
X53370000Y-54637500D01*
%TO.N,DOUT*%
X103800300Y-57100000D02*
X105405300Y-55495000D01*
X102950000Y-57100000D02*
X103800300Y-57100000D01*
X105405300Y-55495000D02*
X108550000Y-55495000D01*
X101700000Y-57100000D02*
X102950000Y-57100000D01*
%TD*%
%TA.AperFunction,Conductor*%
%TO.N,GND*%
G36*
X98540248Y-55750857D02*
G01*
X98586180Y-55803507D01*
X98596355Y-55872632D01*
X98591267Y-55894396D01*
X98585318Y-55912348D01*
X98575000Y-56013345D01*
X98575000Y-56112500D01*
X98651683Y-56112500D01*
X98651683Y-56612500D01*
X98575001Y-56612500D01*
X98575001Y-56711654D01*
X98585319Y-56812652D01*
X98639549Y-56976308D01*
X98640068Y-56977421D01*
X98640371Y-56978788D01*
X98641819Y-56983158D01*
X98641372Y-56983305D01*
X98651683Y-57029819D01*
X98651683Y-57330799D01*
X98651683Y-57330800D01*
X98958538Y-57329015D01*
X98998257Y-57335307D01*
X99162347Y-57389680D01*
X99263352Y-57399999D01*
X99300000Y-57399999D01*
X99300000Y-57327030D01*
X99800000Y-57324123D01*
X99800000Y-57399999D01*
X99836640Y-57399999D01*
X99836654Y-57399998D01*
X99937652Y-57389680D01*
X100101301Y-57335453D01*
X100105127Y-57333669D01*
X100156815Y-57322049D01*
X100247983Y-57321519D01*
X100315132Y-57340813D01*
X100361193Y-57393350D01*
X100372696Y-57444500D01*
X100381682Y-58540799D01*
X100381682Y-58540798D01*
X100381683Y-58540800D01*
X107212775Y-58531455D01*
X107279839Y-58551047D01*
X107325324Y-58603048D01*
X107376399Y-58712578D01*
X107511894Y-58906082D01*
X107678917Y-59073105D01*
X107872421Y-59208600D01*
X108086507Y-59308429D01*
X108086516Y-59308433D01*
X108300000Y-59365634D01*
X108300000Y-58468012D01*
X108357007Y-58500925D01*
X108484174Y-58535000D01*
X108615826Y-58535000D01*
X108742993Y-58500925D01*
X108800000Y-58468012D01*
X108800000Y-59365633D01*
X109013483Y-59308433D01*
X109013492Y-59308429D01*
X109227578Y-59208600D01*
X109421082Y-59073105D01*
X109588105Y-58906082D01*
X109723600Y-58712578D01*
X109823429Y-58498492D01*
X109823432Y-58498486D01*
X109880636Y-58285000D01*
X108983012Y-58285000D01*
X109015925Y-58227993D01*
X109050000Y-58100826D01*
X109050000Y-57969174D01*
X109015925Y-57842007D01*
X108983012Y-57785000D01*
X109880636Y-57785000D01*
X109880635Y-57784999D01*
X109823432Y-57571513D01*
X109823429Y-57571507D01*
X109723600Y-57357422D01*
X109723599Y-57357420D01*
X109615209Y-57202623D01*
X109592882Y-57136417D01*
X109609892Y-57068650D01*
X109660840Y-57020837D01*
X109715969Y-57007504D01*
X115208197Y-56971607D01*
X115275363Y-56990853D01*
X115321462Y-57043356D01*
X115333000Y-57094281D01*
X115370347Y-60595599D01*
X115351379Y-60662845D01*
X115299066Y-60709161D01*
X115246476Y-60720922D01*
X23865492Y-60810678D01*
X23798433Y-60791059D01*
X23752626Y-60738300D01*
X23741370Y-60686991D01*
X23741309Y-60662845D01*
X23731998Y-56975914D01*
X23751514Y-56908829D01*
X23804202Y-56862941D01*
X23856797Y-56851608D01*
X29533972Y-56888282D01*
X29600882Y-56908399D01*
X29646295Y-56961497D01*
X29655791Y-57030719D01*
X29626356Y-57094085D01*
X29620852Y-57099960D01*
X29556886Y-57163926D01*
X29421400Y-57357420D01*
X29421399Y-57357422D01*
X29321570Y-57571507D01*
X29321567Y-57571513D01*
X29264364Y-57784999D01*
X29264364Y-57785000D01*
X30161988Y-57785000D01*
X30129075Y-57842007D01*
X30095000Y-57969174D01*
X30095000Y-58100826D01*
X30129075Y-58227993D01*
X30161988Y-58285000D01*
X29264364Y-58285000D01*
X29321567Y-58498486D01*
X29321570Y-58498492D01*
X29421399Y-58712578D01*
X29556894Y-58906082D01*
X29723917Y-59073105D01*
X29917421Y-59208600D01*
X30131507Y-59308429D01*
X30131516Y-59308433D01*
X30345000Y-59365634D01*
X30345000Y-58468012D01*
X30402007Y-58500925D01*
X30529174Y-58535000D01*
X30660826Y-58535000D01*
X30787993Y-58500925D01*
X30845000Y-58468012D01*
X30845000Y-59365633D01*
X31058483Y-59308433D01*
X31058492Y-59308429D01*
X31272578Y-59208600D01*
X31466082Y-59073105D01*
X31633105Y-58906082D01*
X31768599Y-58712579D01*
X31805488Y-58633468D01*
X31851659Y-58581028D01*
X31918203Y-58561871D01*
X38921683Y-58580800D01*
X38921683Y-58580799D01*
X38921683Y-57504800D01*
X38941368Y-57437761D01*
X38994172Y-57392006D01*
X39045683Y-57380800D01*
X39295537Y-57380800D01*
X39334541Y-57387094D01*
X39342347Y-57389680D01*
X39443352Y-57399999D01*
X39480000Y-57399999D01*
X39480000Y-57380800D01*
X39980000Y-57380800D01*
X39980000Y-57399999D01*
X40016640Y-57399999D01*
X40016654Y-57399998D01*
X40117651Y-57389680D01*
X40125458Y-57387094D01*
X40164462Y-57380800D01*
X40711683Y-57380800D01*
X40720915Y-55894447D01*
X40741015Y-55827535D01*
X40794102Y-55782109D01*
X40845332Y-55771222D01*
X52278855Y-55810311D01*
X52345825Y-55830224D01*
X52391399Y-55883184D01*
X52401787Y-55946912D01*
X52395000Y-56013343D01*
X52395000Y-56112500D01*
X52453233Y-56112500D01*
X52505521Y-56612500D01*
X52395001Y-56612500D01*
X52395001Y-56711654D01*
X52405319Y-56812652D01*
X52459546Y-56976300D01*
X52459551Y-56976311D01*
X52545870Y-57116254D01*
X52563659Y-57168454D01*
X52581682Y-57340798D01*
X52581683Y-57340800D01*
X52810043Y-57339456D01*
X52849767Y-57345747D01*
X52982354Y-57389681D01*
X52982350Y-57389681D01*
X53083352Y-57399999D01*
X53120000Y-57399999D01*
X53120000Y-57337633D01*
X53620000Y-57334692D01*
X53620000Y-57399999D01*
X53656640Y-57399999D01*
X53656654Y-57399998D01*
X53757652Y-57389680D01*
X53910446Y-57339050D01*
X53948717Y-57332758D01*
X54156956Y-57331533D01*
X54224108Y-57350823D01*
X54270172Y-57403357D01*
X54281683Y-57455531D01*
X54281683Y-58510799D01*
X54281683Y-58510800D01*
X61971683Y-58470800D01*
X61943192Y-56926597D01*
X61938908Y-56694387D01*
X61957353Y-56626996D01*
X62009304Y-56580275D01*
X62062887Y-56568100D01*
X77227683Y-56568100D01*
X77294722Y-56587785D01*
X77340477Y-56640589D01*
X77351683Y-56692100D01*
X77351683Y-58510799D01*
X77351683Y-58510800D01*
X78934532Y-58508736D01*
X79001596Y-58528333D01*
X79022374Y-58545055D01*
X79168135Y-58690816D01*
X79221561Y-58744242D01*
X79273785Y-58796466D01*
X79398009Y-58879470D01*
X79398022Y-58879477D01*
X79536049Y-58936649D01*
X79536054Y-58936651D01*
X79536058Y-58936651D01*
X79536059Y-58936652D01*
X79682591Y-58965800D01*
X79682594Y-58965800D01*
X79682595Y-58965800D01*
X79810863Y-58965800D01*
X79877902Y-58985485D01*
X79883749Y-58989482D01*
X79896049Y-58998419D01*
X79963020Y-59028235D01*
X80070512Y-59076094D01*
X80257313Y-59115800D01*
X80448287Y-59115800D01*
X80635088Y-59076094D01*
X80809552Y-58998418D01*
X80964053Y-58886166D01*
X81091840Y-58744244D01*
X81173360Y-58603048D01*
X81190577Y-58573228D01*
X81191707Y-58573880D01*
X81232400Y-58525989D01*
X81299246Y-58505657D01*
X81300085Y-58505652D01*
X85021683Y-58500800D01*
X85030623Y-57463730D01*
X85050884Y-57396864D01*
X85104081Y-57351566D01*
X85154618Y-57340800D01*
X85254824Y-57340800D01*
X85293828Y-57347094D01*
X85422347Y-57389680D01*
X85523352Y-57399999D01*
X85560000Y-57399999D01*
X85560000Y-57340800D01*
X86060000Y-57340800D01*
X86060000Y-57399999D01*
X86096640Y-57399999D01*
X86096654Y-57399998D01*
X86197651Y-57389680D01*
X86197654Y-57389680D01*
X86326172Y-57347094D01*
X86365176Y-57340800D01*
X86731683Y-57340800D01*
X86731683Y-56962421D01*
X86737977Y-56923417D01*
X86774680Y-56812651D01*
X86784999Y-56711654D01*
X86785000Y-56711641D01*
X86785000Y-56612500D01*
X86731683Y-56612500D01*
X86731683Y-56112500D01*
X86784999Y-56112500D01*
X86784999Y-56013360D01*
X86784998Y-56013347D01*
X86774118Y-55906847D01*
X86786887Y-55838154D01*
X86834768Y-55787269D01*
X86897059Y-55770245D01*
X98473146Y-55731399D01*
X98540248Y-55750857D01*
G37*
%TD.AperFunction*%
%TD*%
%TA.AperFunction,Conductor*%
%TO.N,+5V*%
G36*
X52353243Y-53696685D02*
G01*
X52398998Y-53749489D01*
X52410201Y-53800174D01*
X52412498Y-54144836D01*
X52406210Y-54184657D01*
X52405319Y-54187345D01*
X52395000Y-54288345D01*
X52395000Y-54387500D01*
X52414117Y-54387500D01*
X52417450Y-54887500D01*
X52395001Y-54887500D01*
X52395001Y-54986647D01*
X52395080Y-54988200D01*
X52395001Y-54988530D01*
X52395001Y-54989802D01*
X52394697Y-54989802D01*
X52378827Y-55056153D01*
X52328416Y-55104532D01*
X52271240Y-55118500D01*
X52027366Y-55118500D01*
X51832538Y-55157254D01*
X51832530Y-55157256D01*
X51648998Y-55233278D01*
X51648996Y-55233279D01*
X51641607Y-55238216D01*
X51626431Y-55248356D01*
X51559753Y-55269231D01*
X51557436Y-55269251D01*
X41724169Y-55260723D01*
X41723853Y-55260722D01*
X41013576Y-55258293D01*
X40946604Y-55238380D01*
X40901030Y-55185419D01*
X40890000Y-55134294D01*
X40890000Y-53801000D01*
X40909685Y-53733961D01*
X40962489Y-53688206D01*
X41014000Y-53677000D01*
X52286204Y-53677000D01*
X52353243Y-53696685D01*
G37*
%TD.AperFunction*%
%TA.AperFunction,Conductor*%
G36*
X100263965Y-52483185D02*
G01*
X100309720Y-52535989D01*
X100319664Y-52605147D01*
X100310000Y-52626308D01*
X100310000Y-53571098D01*
X100290315Y-53638137D01*
X100237511Y-53683892D01*
X100168353Y-53693836D01*
X100120903Y-53676636D01*
X100101311Y-53664551D01*
X100101300Y-53664546D01*
X99937652Y-53610319D01*
X99836654Y-53600000D01*
X99800000Y-53600000D01*
X99800000Y-53760000D01*
X99300000Y-53760000D01*
X99300000Y-53600000D01*
X99263361Y-53600000D01*
X99263343Y-53600001D01*
X99162347Y-53610319D01*
X98998699Y-53664546D01*
X98998688Y-53664551D01*
X98873875Y-53741538D01*
X98808778Y-53760000D01*
X98650000Y-53760000D01*
X98651321Y-53970172D01*
X98641176Y-54016629D01*
X98641818Y-54016842D01*
X98639802Y-54022925D01*
X98639711Y-54023343D01*
X98639547Y-54023693D01*
X98585319Y-54187346D01*
X98575000Y-54288345D01*
X98575000Y-54387500D01*
X98653947Y-54387500D01*
X98657091Y-54887500D01*
X98575001Y-54887500D01*
X98575001Y-54986657D01*
X98584673Y-55081334D01*
X98571903Y-55150027D01*
X98524022Y-55200911D01*
X98461731Y-55217934D01*
X86891251Y-55256761D01*
X86891244Y-55254837D01*
X86830579Y-55241437D01*
X86781331Y-55191875D01*
X86766697Y-55123555D01*
X86772648Y-55093785D01*
X86774681Y-55087650D01*
X86784999Y-54986654D01*
X86785000Y-54986641D01*
X86785000Y-54887500D01*
X86690000Y-54887500D01*
X86690000Y-54387500D01*
X86784999Y-54387500D01*
X86784999Y-54288360D01*
X86784998Y-54288345D01*
X86774680Y-54187347D01*
X86720453Y-54023699D01*
X86720448Y-54023690D01*
X86708461Y-54004254D01*
X86690000Y-53939158D01*
X86690000Y-53780000D01*
X86582686Y-53780000D01*
X86515647Y-53760315D01*
X86509817Y-53756152D01*
X86361311Y-53664551D01*
X86361300Y-53664546D01*
X86197652Y-53610319D01*
X86096654Y-53600000D01*
X86060000Y-53600000D01*
X86060000Y-53780000D01*
X85560000Y-53780000D01*
X85560000Y-53600000D01*
X85523361Y-53600000D01*
X85523343Y-53600001D01*
X85422347Y-53610319D01*
X85258699Y-53664546D01*
X85258688Y-53664551D01*
X85105815Y-53758846D01*
X85104733Y-53757093D01*
X85049438Y-53779406D01*
X85037314Y-53780000D01*
X85034000Y-53780000D01*
X84966961Y-53760315D01*
X84921206Y-53707511D01*
X84910000Y-53656000D01*
X84910000Y-52587500D01*
X84929685Y-52520461D01*
X84982489Y-52474706D01*
X85034000Y-52463500D01*
X100196926Y-52463500D01*
X100263965Y-52483185D01*
G37*
%TD.AperFunction*%
%TA.AperFunction,Conductor*%
G36*
X115352991Y-50239710D02*
G01*
X115398770Y-50292493D01*
X115410000Y-50344057D01*
X115410000Y-53876316D01*
X115390315Y-53943355D01*
X115337511Y-53989110D01*
X115286317Y-54000316D01*
X110021058Y-54013781D01*
X109953969Y-53994268D01*
X109908079Y-53941581D01*
X109897452Y-53876521D01*
X109899999Y-53852834D01*
X109900000Y-53852827D01*
X109900000Y-53205000D01*
X108983012Y-53205000D01*
X109015925Y-53147993D01*
X109050000Y-53020826D01*
X109050000Y-52889174D01*
X109015925Y-52762007D01*
X108983012Y-52705000D01*
X109900000Y-52705000D01*
X109900000Y-52057172D01*
X109899999Y-52057155D01*
X109893598Y-51997627D01*
X109893596Y-51997620D01*
X109843354Y-51862913D01*
X109843350Y-51862906D01*
X109757190Y-51747812D01*
X109757187Y-51747809D01*
X109642093Y-51661649D01*
X109642086Y-51661645D01*
X109507379Y-51611403D01*
X109507372Y-51611401D01*
X109447844Y-51605000D01*
X108800000Y-51605000D01*
X108800000Y-52521988D01*
X108742993Y-52489075D01*
X108615826Y-52455000D01*
X108484174Y-52455000D01*
X108357007Y-52489075D01*
X108300000Y-52521988D01*
X108300000Y-51605000D01*
X107652155Y-51605000D01*
X107592627Y-51611401D01*
X107592620Y-51611403D01*
X107457913Y-51661645D01*
X107457906Y-51661649D01*
X107342812Y-51747809D01*
X107342809Y-51747812D01*
X107256649Y-51862906D01*
X107256645Y-51862913D01*
X107206403Y-51997620D01*
X107206401Y-51997627D01*
X107200000Y-52057155D01*
X107200000Y-52582144D01*
X107180315Y-52649183D01*
X107127511Y-52694938D01*
X107074971Y-52706140D01*
X106524590Y-52701572D01*
X106457716Y-52681331D01*
X106437938Y-52665257D01*
X104888518Y-51115836D01*
X104888517Y-51115835D01*
X104826399Y-51074330D01*
X104764284Y-51032826D01*
X104748128Y-51026134D01*
X104626247Y-50975649D01*
X104626239Y-50975647D01*
X104552976Y-50961074D01*
X104479709Y-50946500D01*
X104479706Y-50946500D01*
X82921137Y-50946500D01*
X82854098Y-50926815D01*
X82848251Y-50922818D01*
X82835950Y-50913880D01*
X82702007Y-50854246D01*
X82661488Y-50836206D01*
X82661486Y-50836205D01*
X82474687Y-50796500D01*
X82283713Y-50796500D01*
X82096914Y-50836205D01*
X82096912Y-50836206D01*
X81922453Y-50913880D01*
X81922446Y-50913883D01*
X81767945Y-51026135D01*
X81640159Y-51168057D01*
X81544673Y-51333443D01*
X81544670Y-51333450D01*
X81485659Y-51515068D01*
X81485658Y-51515072D01*
X81465696Y-51705000D01*
X81485658Y-51894928D01*
X81485659Y-51894931D01*
X81544670Y-52076549D01*
X81544673Y-52076556D01*
X81640160Y-52241944D01*
X81765077Y-52380678D01*
X81772295Y-52388695D01*
X81770061Y-52390706D01*
X81799869Y-52439132D01*
X81798512Y-52508988D01*
X81759603Y-52567021D01*
X81695496Y-52594806D01*
X81680073Y-52595749D01*
X77310001Y-52589999D01*
X77310000Y-52590000D01*
X77318622Y-54926644D01*
X77299186Y-54993754D01*
X77246551Y-55039704D01*
X77194624Y-55051100D01*
X61924000Y-55051100D01*
X61856961Y-55031415D01*
X61811206Y-54978611D01*
X61800000Y-54927100D01*
X61800000Y-52620000D01*
X59090202Y-52616327D01*
X59023189Y-52596551D01*
X59002689Y-52580008D01*
X58752018Y-52329336D01*
X58752017Y-52329335D01*
X58637943Y-52253114D01*
X58627784Y-52246326D01*
X58617200Y-52241942D01*
X58489747Y-52189149D01*
X58489739Y-52189147D01*
X58416476Y-52174574D01*
X58343209Y-52160000D01*
X58343206Y-52160000D01*
X39818094Y-52160000D01*
X39818090Y-52160000D01*
X39744824Y-52174574D01*
X39671560Y-52189146D01*
X39671556Y-52189148D01*
X39671554Y-52189148D01*
X39671553Y-52189149D01*
X39614376Y-52212832D01*
X39614374Y-52212833D01*
X39533514Y-52246326D01*
X39523361Y-52253111D01*
X39523360Y-52253110D01*
X39523356Y-52253114D01*
X39409288Y-52329331D01*
X39409280Y-52329337D01*
X39294937Y-52443681D01*
X39233614Y-52477166D01*
X39207256Y-52480000D01*
X32069000Y-52480000D01*
X32001961Y-52460315D01*
X31956206Y-52407511D01*
X31945000Y-52356000D01*
X31945000Y-52057172D01*
X31944999Y-52057155D01*
X31938598Y-51997627D01*
X31938596Y-51997620D01*
X31888354Y-51862913D01*
X31888350Y-51862906D01*
X31802190Y-51747812D01*
X31802187Y-51747809D01*
X31687093Y-51661649D01*
X31687086Y-51661645D01*
X31552379Y-51611403D01*
X31552372Y-51611401D01*
X31492844Y-51605000D01*
X30845000Y-51605000D01*
X30845000Y-52521988D01*
X30787993Y-52489075D01*
X30660826Y-52455000D01*
X30529174Y-52455000D01*
X30402007Y-52489075D01*
X30345000Y-52521988D01*
X30345000Y-51605000D01*
X29697155Y-51605000D01*
X29637627Y-51611401D01*
X29637620Y-51611403D01*
X29502913Y-51661645D01*
X29502906Y-51661649D01*
X29387812Y-51747809D01*
X29387809Y-51747812D01*
X29301649Y-51862906D01*
X29301645Y-51862913D01*
X29251403Y-51997620D01*
X29251401Y-51997627D01*
X29245000Y-52057155D01*
X29245000Y-52705000D01*
X30161988Y-52705000D01*
X30129075Y-52762007D01*
X30095000Y-52889174D01*
X30095000Y-53020826D01*
X30129075Y-53147993D01*
X30161988Y-53205000D01*
X29245000Y-53205000D01*
X29245000Y-53852844D01*
X29251401Y-53912372D01*
X29251403Y-53912380D01*
X29254964Y-53921927D01*
X29259948Y-53991619D01*
X29226462Y-54052942D01*
X29165139Y-54086426D01*
X29139737Y-54089256D01*
X23973022Y-54129052D01*
X23905833Y-54109885D01*
X23859673Y-54057435D01*
X23848082Y-54006992D01*
X23791954Y-50405422D01*
X23810592Y-50338087D01*
X23862676Y-50291515D01*
X23915438Y-50279494D01*
X28749752Y-50260001D01*
X28750252Y-50260000D01*
X29439971Y-50260000D01*
X29440000Y-50260000D01*
X115285944Y-50220057D01*
X115352991Y-50239710D01*
G37*
%TD.AperFunction*%
%TD*%
M02*
