0
SECTION
2
HEADER
9
$INSUNITS
70
4
9
$ACADVER
1
AC1014
9
$HANDSEED
5
FFFF
0
ENDSEC
0
SECTION
2
TABLES
0
TABLE
2
VPORT
5
8
100
AcDbSymbolTable
0
ENDTAB
0
TABLE
2
LTYPE
5
5
100
AcDbSymbolTable
0
LTYPE
5
14
100
AcDbSymbolTableRecord
100
AcDbLinetypeTableRecord
2
BYBLOCK
70
0
0
LTYPE
5
15
100
AcDbSymbolTableRecord
100
AcDbLinetypeTableRecord
2
BYLAYER
70
0
0
LTYPE
5
16
100
AcDbSymbolTableRecord
100
AcDbLinetypeTableRecord
2
DASHED
70
0
3
Dashed __ __ __ __ __ __ __ __ __ __ __ __ __ _
72
65
73
2
40
0.75
49
0.5
74
0
49
-0.25
74
0
0
ENDTAB
0
TABLE
2
LAYER
5
2
100
AcDbSymbolTable
70
2
0
LAYER
5
50
100
AcDbSymbolTableRecord
100
AcDbLayerTableRecord
2
0
70
0
62
7
6
CONTINUOUS
0
ENDTAB
0
TABLE
2
STYLE
5
3
100
AcDbSymbolTable
70
1
0
STYLE
5
11
100
AcDbSymbolTableRecord
100
AcDbTextStyleTableRecord
2
STANDARD
70
0
0
ENDTAB
0
TABLE
2
VIEW
5
6
100
AcDbSymbolTable
70
0
0
ENDTAB
0
TABLE
2
UCS
5
7
100
AcDbSymbolTable
70
0
0
ENDTAB
0
TABLE
2
APPID
5
9
100
AcDbSymbolTable
70
2
0
APPID
5
12
100
AcDbSymbolTableRecord
100
AcDbRegAppTableRecord
2
ACAD
70
0
0
ENDTAB
0
TABLE
2
DIMSTYLE
5
A
100
AcDbSymbolTable
70
1
0
ENDTAB
0
TABLE
2
BLOCK_RECORD
5
1
100
AcDbSymbolTable
70
1
0
BLOCK_RECORD
5
1F
100
AcDbSymbolTableRecord
100
AcDbBlockTableRecord
2
*MODEL_SPACE
0
BLOCK_RECORD
5
1B
100
AcDbSymbolTableRecord
100
AcDbBlockTableRecord
2
*PAPER_SPACE
0
ENDTAB
0
ENDSEC
0
SECTION
2
BLOCKS
0
BLOCK
5
20
100
AcDbEntity
100
AcDbBlockBegin
2
*MODEL_SPACE
0
ENDBLK
5
21
100
AcDbEntity
100
AcDbBlockEnd
0
BLOCK
5
1C
100
AcDbEntity
100
AcDbBlockBegin
2
*PAPER_SPACE
0
ENDBLK
5
1D
100
AcDbEntity
100
AcDbBlockEnd
0
ENDSEC
0
SECTION
2
ENTITIES
0
LWPOLYLINE
5
100
100
AcDbEntity
8
0
100
AcDbPolyline
90
48
70
1
43
0.0
10
-7.5894200801849525
20
-1.3002733886241022
42
0.42204609730704579
10
-7.3532736301422119
20
-1.4626571536064148
10
-5.7649137255853011
20
-1.1467127088344928
42
0.098491557472180247
10
-4.8872578160870344
20
-3.2655614625709948
10
-6.2338042259216309
20
-4.1652950644493103
42
0.42204552511987842
10
-6.2859624624254273
20
-4.4470977783200389
42
0.085043834371035548
10
-4.447098104572337
20
-6.2859625023264982
42
0.42204557638037732
10
-4.1652950644493103
20
-6.2338042259216309
10
-3.2655614038212115
20
-4.8872580261850125
42
0.098491489455399567
10
-1.1467126402844525
20
-5.7649137555269636
10
-1.4626571536064148
20
-7.3532742261886597
42
0.42204721755189806
10
-1.3002735376356864
20
-7.589419484138511
42
0.085044119102459584
10
1.3002729315917998
20
-7.5894194257849437
42
0.42204894442484514
10
1.4626574516296387
20
-7.3532742261886588
10
1.1467123498820277
20
-5.7649137938388968
42
0.098491480935913311
10
3.265561407297624
20
-4.8872580313878062
10
4.1652947664260864
20
-6.2338042259216309
42
0.42204566651253339
10
4.4470977783202335
20
-6.2859624624252897
42
0.08504381499813049
10
6.2859625659108431
20
-4.4470978515328277
42
0.42204685023693489
10
6.2338048219680786
20
-4.1652950644493103
10
4.8872580392130409
20
-3.2655616116589714
42
0.098490933251662
10
5.7649142755964045
20
-1.1467126996774946
10
7.3532742261886597
20
-1.4626571536064148
42
0.42204748564142502
10
7.5894194841385403
20
-1.3002733886238973
42
0.085044303566237739
10
7.5894193462200086
20
1.300273364994871
42
0.42204748564172745
10
7.3532742261886597
20
1.4626571536064148
10
5.7649142751001472
20
1.1467126995787844
42
0.09849093325166243
10
4.887258039521841
20
3.2655616118653032
10
6.2338048219680786
20
4.1652950644493103
42
0.42204685023692656
10
6.2859624624252222
20
4.4470977783203294
42
0.085043814998126369
10
4.4470977563352756
20
6.2859624313494864
42
0.42204566651243219
10
4.1652947664260864
20
6.2338042259216309
10
3.2655614075204649
20
4.8872580317213057
42
0.098491480935919529
10
1.1467123500750864
20
5.7649137948094653
10
1.4626574516296387
20
7.3532742261886597
42
0.42204894442477409
10
1.3002729415889713
20
7.5894194841385545
42
0.085044119102459001
10
-1.3002735221554902
20
7.5894193937834604
42
0.42204721755201957
10
-1.4626571536064148
20
7.3532742261886597
10
-1.1467126401235481
20
5.764913754718064
42
0.098491489455399206
10
-3.2655614035830807
20
4.8872580258286247
10
-4.1652950644493103
20
6.2338042259216309
42
0.42204557638031182
10
-4.4470980763436865
20
6.2859624624251289
42
0.08504383437102514
10
-6.2859623894557206
20
4.4470977266968745
42
0.42204552511976207
10
-6.2338042259216309
20
4.1652950644493103
10
-4.8872578155271329
20
3.2655614621968865
42
0.09849155747219196
10
-5.7649137262738259
20
1.1467127089714533
10
-7.3532736301422119
20
1.4626571536064148
42
0.42204609730717979
10
-7.5894200801849676
20
1.3002733886240125
42
0.085043321712344813
0
CIRCLE
5
101
100
AcDbEntity
8
0
100
AcDbCircle
10
-3.3316796008500896e-08
20
1.5050591964729171e-16
30
0
40
5.5500000779111343
210
0
220
-0
230
1
0
CIRCLE
5
102
100
AcDbEntity
8
0
100
AcDbCircle
10
-3.3316796007382191e-08
20
1.5045215450793321e-16
30
0
40
5.5500000779111343
210
-0
220
0
230
1
0
LWPOLYLINE
5
103
100
AcDbEntity
8
0
100
AcDbPolyline
90
68
70
1
43
0.0
10
-4.1515180823142463
20
0.63631702994796457
42
0.10611119500864546
10
-4.9471580985835599
20
0.1677120400984537
42
0.016944704909377783
10
-4.9471580985835582
20
-0.16771204009846191
42
0.1061111949767035
10
-4.151518082720866
20
-0.63631703029082476
42
0.016355790640694277
10
-4.1010394359037772
20
-0.90635322900058879
42
0.10611123648653384
10
-4.6736720409365038
20
-1.6307328758209119
42
0.016946406540494632
10
-4.5525029122725904
20
-1.9435064340627537
42
0.10611129886061875
10
-3.641310910594147
20
-2.0930492938288108
42
0.016356247260193961
10
-3.4966927960142371
20
-2.3266155986201338
42
0.10611115086316272
10
-3.7689807731486247
20
-3.208938249655251
42
0.016944605261634563
10
-3.5430071230834281
20
-3.4568196265091999
42
0.10611128204675578
10
-2.6393246244411728
20
-3.2671034934089001
42
0.016357413505975436
10
-2.4200984975343807
20
-3.4326555974302257
42
0.10611130261515689
10
-2.3552677094971846
20
-4.3537589712248561
42
0.016944141714965055
10
-2.0550086414397
20
-4.5032700677874065
42
0.10611148343106461
10
-1.2808832273052939
20
-3.9999172523833342
42
0.016358063121140611
10
-1.0166564402314628
20
-4.075096220022254
42
0.10611134414208838
10
-0.62346288982117049
20
-4.91057965143498
42
0.016948011905757523
10
-0.28946944724992985
20
-4.9415287095403713
42
0.10611152737481783
10
0.25054899060232555
20
-4.1925200527531414
42
0.016356973653608765
10
0.52409051016727859
20
-4.1671729423394339
42
0.10611008748956292
10
1.1925441745882188
20
-4.8042002696642463
42
0.016945055755263325
10
1.515163985310541
20
-4.7124071686789639
42
0.1061108118473417
10
1.7481427382025272
20
-3.818900068979747
42
0.016354687313490816
10
1.9940566655386436
20
-3.696449681849284
42
0.10611145519085108
10
2.8474919919467268
20
-4.0489864696103055
42
0.016945624212357003
10
3.1151658083585509
20
-3.8468483678882763
42
0.10611084131707713
10
3.0096405604325707
20
-2.9295162062228757
42
0.016358461558096081
10
3.1947135802236422
20
-2.726500287384364
42
0.10611130818941492
10
4.1178697093663308
20
-2.7469346463856974
42
0.016944716162726574
10
4.2944471978578811
20
-2.4617517147212586
42
0.10611197621783353
10
3.8646691641119766
20
-1.6444846751348832
42
0.016355655308283076
10
3.9639074885078944
20
-1.3883219149167498
42
0.10611211376073511
10
4.8321056518525483
20
-1.0738942885280736
42
0.016947360617707689
10
4.8937398097702225
20
-0.74418145169652594
42
0.10611168855016682
10
4.1977530744720708
20
-0.13735675424251759
42
0.016359152931611408
10
4.1977530751857852
20
0.13735675383566959
42
0.10611168847185307
10
4.8937398091317235
20
0.7441814518565335
42
0.016947360614216086
10
4.8321056519036674
20
1.0738942887291083
42
0.10611211370899128
10
3.9639074889771013
20
1.3883219154906947
42
0.016355655270290703
10
3.8646691645904916
20
1.6444846750641948
42
0.10611197622285969
10
4.294447198617946
20
2.461751714815871
42
0.016944716191241799
10
4.1178697097507104
20
2.746934646965018
42
0.10611130823039779
10
3.1947135800612889
20
2.726500287685381
42
0.016358461564018423
10
3.0096405596215305
20
2.9295162060388735
42
0.10611084140454348
10
3.1151658091043788
20
3.8468483682894079
42
0.016945624245704019
10
2.8474919921315367
20
4.048986470451462
42
0.10611145525506073
10
1.9940566655616636
20
3.6964496814175059
42
0.016354687348409964
10
1.7481427376285763
20
3.818900068593567
42
0.10611081186299835
10
1.5151639849326735
20
4.7124071682373119
42
0.01694505573234837
10
1.1925441746785799
20
4.8042002690794536
42
0.10611008746206933
10
0.52409051047941491
20
4.1671729421398238
42
0.016356973705693324
10
0.25054899003471881
20
4.1925200523135668
42
0.10611152735448685
10
-0.28946944755205017
20
4.941528708680992
42
0.016948011905686611
10
-0.62346289027402135
20
4.910579652220445
42
0.10611134421127763
10
-1.0166564399483704
20
4.0750962196977349
42
0.016358063107400889
10
-1.2808832270848676
20
3.9999172530904845
42
0.1061114834192355
10
-2.0550086414595228
20
4.5032700684161515
42
0.016944141743492729
10
-2.355267710147027
20
4.3537589717485767
42
0.1061113026787267
10
-2.4200984971284227
20
3.4326555972548043
42
0.016357413502122505
10
-2.6393246245128683
20
3.2671034939676931
42
0.10611128204600322
10
-3.5430071233722926
20
3.4568196271901179
42
0.016944605261635381
10
-3.7689807724465627
20
3.2089382494315597
42
0.10611115084610379
10
-3.4966927955845724
20
2.3266155987050343
42
0.016356247263346006
10
-3.6413109108305242
20
2.0930492942598948
42
0.10611129878248483
10
-4.5525029116694817
20
1.9435064336835048
42
0.016946406523712848
10
-4.6736720403693157
20
1.630732875855383
42
0.10611123649764369
10
-4.1010394355551698
20
0.90635322892608206
42
0.016355790657399897
0
ENDSEC
0
SECTION
2
OBJECTS
0
DICTIONARY
5
C
100
AcDbDictionary
3
ACAD_GROUP
350
D
3
ACAD_MLINESTYLE
350
17
0
DICTIONARY
5
D
100
AcDbDictionary
0
DICTIONARY
5
1A
330
C
100
AcDbDictionary
0
DICTIONARY
5
17
100
AcDbDictionary
0
ENDSEC
0
EOF
